<?xml version="1.0" standalone="no"?>
<!DOCTYPE svg PUBLIC "-//W3C//DTD SVG 20010904//EN"
 "http://www.w3.org/TR/2001/REC-SVG-20010904/DTD/svg10.dtd">
<svg version="1.0" xmlns="http://www.w3.org/2000/svg"
 width="500.000000pt" height="500.000000pt" viewBox="0 0 500.000000 500.000000"
 preserveAspectRatio="xMidYMid meet">

<g transform="translate(0.000000,500.000000) scale(0.100000,-0.100000)"
fill="#000000" stroke="none">
<path d="M447 3112 c-184 -95 -170 -80 -150 -159 3 -16 1 -23 -9 -23 -18 0
-48 -32 -48 -51 1 -10 3 -9 11 4 11 19 44 23 54 7 3 -6 -1 -13 -9 -16 -22 -8
-20 -21 8 -74 13 -25 27 -67 31 -95 4 -27 16 -67 27 -88 l19 -39 -21 -5 c-16
-4 -18 -8 -9 -19 7 -8 20 -12 29 -9 13 4 21 -4 33 -32 59 -147 199 -211 314
-143 31 18 36 18 49 5 9 -8 21 -15 27 -15 7 1 2 9 -11 20 l-23 19 35 45 c19
25 37 59 41 77 5 24 11 30 26 26 10 -3 23 1 30 9 9 11 8 14 -5 14 -20 0 -20 8
-2 51 7 19 17 56 21 84 4 27 15 66 26 87 21 40 25 78 9 78 -16 0 -12 17 6 24
9 4 23 1 30 -5 8 -6 14 -7 14 -2 0 15 -23 33 -43 33 -12 0 -17 5 -14 14 3 7 8
33 12 57 l6 44 -165 83 c-91 45 -169 82 -173 82 -4 0 -84 -40 -176 -88z m173
42 c0 -8 -4 -12 -10 -9 -5 3 -10 10 -10 16 0 5 5 9 10 9 6 0 10 -7 10 -16z
m35 -4 c3 -5 2 -10 -4 -10 -5 0 -13 5 -16 10 -3 6 -2 10 4 10 5 0 13 -4 16
-10z m-75 -20 c0 -5 -4 -10 -10 -10 -5 0 -10 5 -10 10 0 6 5 10 10 10 6 0 10
-4 10 -10z m120 2 c0 -15 -11 -21 -27 -15 -12 5 -12 7 -1 14 17 11 28 11 28 1z
m30 -17 c0 -8 -8 -15 -17 -14 -11 0 -13 3 -5 6 6 2 10 9 6 14 -3 5 0 9 5 9 6
0 11 -7 11 -15z m-192 -12 c-4 -22 -22 -20 -26 1 -2 10 3 16 13 16 10 0 15 -7
13 -17z m227 -14 c-4 -5 -13 -9 -21 -9 -12 0 -12 2 -2 14 14 15 32 11 23 -5z
m42 -9 c10 0 14 -6 10 -20 -3 -13 0 -20 10 -20 10 0 13 6 9 16 -3 8 -2 12 4 9
6 -3 10 -13 10 -21 0 -16 -36 -19 -45 -3 -4 6 -17 14 -29 19 -16 7 -17 9 -4 9
10 1 16 7 14 14 -1 6 -1 9 1 5 3 -5 12 -8 20 -8z m-323 2 c8 -13 -11 -35 -23
-28 -16 10 -14 36 3 36 8 0 17 -4 20 -8z m162 -12 c8 0 14 -4 14 -10 0 -5 -4
-10 -10 -10 -5 0 -7 -7 -3 -16 4 -12 2 -15 -8 -12 -8 3 -21 1 -31 -3 -13 -7
-15 -5 -11 10 3 10 -1 22 -7 26 -8 5 -4 11 12 19 12 7 25 8 26 4 2 -4 10 -8
18 -8z m-216 -35 c0 -19 -20 -29 -32 -17 -15 15 -2 43 17 36 8 -3 15 -12 15
-19z m473 -18 c18 -7 23 -22 8 -31 -5 -3 -7 -23 -4 -44 4 -27 0 -43 -10 -54
-9 -9 -14 -24 -10 -37 3 -11 -2 -32 -10 -45 -9 -13 -13 -33 -10 -44 2 -11 -1
-31 -8 -43 -8 -13 -14 -42 -15 -63 -1 -21 -6 -42 -11 -45 -4 -3 -9 -21 -10
-40 -1 -19 -7 -39 -13 -45 -5 -5 -10 -19 -10 -30 0 -23 -27 -56 -47 -56 -8 0
-12 -4 -9 -9 8 -12 -26 -40 -52 -44 -12 -2 -28 -9 -34 -15 -14 -14 -42 -15
-66 -3 -9 6 -30 13 -46 16 -16 3 -30 14 -33 25 -3 11 -14 20 -24 20 -18 0 -54
52 -43 63 3 3 -2 17 -11 31 -11 16 -15 35 -11 50 4 15 0 28 -10 37 -9 7 -14
25 -13 43 2 17 -5 43 -15 59 -11 15 -16 36 -13 48 3 13 -1 28 -9 37 -8 8 -14
27 -12 42 1 15 -3 35 -11 43 -7 9 -11 29 -10 45 2 16 -2 37 -10 45 -16 20 -6
37 21 37 16 0 19 -5 15 -21 -3 -12 1 -32 10 -45 8 -13 13 -35 11 -49 -3 -15 0
-26 9 -29 10 -4 13 -18 11 -43 -2 -23 2 -42 10 -48 7 -6 14 -26 15 -45 2 -19
9 -45 16 -58 7 -13 11 -33 9 -46 -1 -13 3 -30 10 -38 6 -8 13 -28 14 -44 1
-16 10 -40 20 -53 10 -13 18 -30 18 -37 0 -8 8 -14 18 -14 10 0 27 -8 37 -17
13 -13 30 -17 62 -14 24 1 43 7 43 11 0 5 16 14 34 21 19 7 33 16 31 20 -3 3
6 18 20 33 13 14 22 33 19 41 -3 8 1 28 9 44 8 17 13 40 10 51 -3 11 2 31 11
45 9 13 16 40 16 59 0 19 4 37 9 40 5 3 9 22 9 41 0 20 6 43 13 52 8 8 12 29
10 45 -1 16 4 37 12 46 17 19 6 43 -23 55 -12 4 -12 6 2 6 12 1 16 7 12 19 -5
15 -4 15 8 1 7 -8 21 -18 31 -22z m-172 -49 c-12 -32 -24 -5 -15 35 6 30 7 31
15 10 5 -13 5 -33 0 -45z m-200 -21 c-6 -8 -22 -12 -36 -9 -14 2 -32 -1 -40
-8 -18 -15 -19 -1 -1 23 15 20 37 22 53 6 9 -9 10 -7 6 9 -3 12 -2 30 2 39 6
15 10 12 18 -14 7 -23 6 -37 -2 -46z m162 26 c3 -5 -6 -16 -19 -26 -18 -13
-24 -15 -24 -4 0 24 33 47 43 30z m94 -5 c6 -7 13 -22 17 -32 6 -19 6 -19 -12
-3 -17 16 -52 24 -52 12 0 -3 9 -14 20 -25 11 -11 20 -30 20 -42 -1 -22 -2
-22 -27 7 l-26 29 5 -80 c3 -56 11 -95 27 -128 17 -33 20 -51 13 -58 -19 -19
-46 97 -47 194 l0 88 -32 -38 c-24 -28 -32 -33 -33 -19 0 27 18 57 35 57 8 0
15 5 15 11 0 5 4 8 9 4 6 -3 15 4 21 15 12 23 33 26 47 8z m-199 -10 c7 -7 12
-18 12 -25 0 -10 -6 -10 -25 3 -14 9 -22 20 -19 25 7 12 18 11 32 -3z m-10
-50 c15 -13 17 -62 1 -52 -6 3 -19 19 -28 35 l-18 29 -6 -92 c-5 -87 -32 -188
-49 -188 -13 0 -9 25 12 73 11 26 23 79 26 124 l6 78 -23 -35 c-23 -36 -36
-29 -25 15 9 34 68 41 104 13z m-233 -156 c-7 -8 -35 70 -34 97 1 18 7 7 20
-34 10 -32 16 -61 14 -63z m576 26 l-20 -43 6 40 c3 22 10 51 16 65 10 24 11
25 14 3 3 -12 -5 -41 -16 -65z m-281 -88 c1 9 5 6 11 -8 6 -17 4 -32 -6 -52
-8 -16 -15 -37 -16 -47 0 -15 -2 -15 -7 -3 -4 8 -15 27 -25 41 -12 18 -15 35
-11 58 4 19 10 28 14 21 5 -8 10 -6 15 7 7 16 9 15 15 -7 5 -14 9 -18 10 -10z
m-261 -60 c1 -13 0 -13 -9 0 -5 8 -9 26 -9 40 l1 25 8 -25 c4 -14 8 -32 9 -40z
m506 3 c-10 -40 -17 -20 -9 23 5 24 9 32 12 21 2 -10 1 -30 -3 -44z m-278 -54
c6 -6 9 -19 6 -28 -4 -12 -1 -12 11 3 8 10 17 23 19 29 1 5 18 2 37 -8 l35
-18 -30 -14 c-18 -9 -37 -29 -46 -51 l-16 -37 -18 37 c-10 21 -30 42 -47 49
-35 14 -35 22 0 36 36 15 36 15 49 2z"/>
<path d="M895 3000 c3 -5 8 -10 11 -10 2 0 4 5 4 10 0 6 -5 10 -11 10 -5 0 -7
-4 -4 -10z"/>
<path d="M340 2920 c0 -11 6 -20 14 -20 9 0 12 7 9 20 -3 11 -9 20 -14 20 -5
0 -9 -9 -9 -20z"/>
<path d="M877 2933 c-10 -9 -8 -33 2 -33 5 0 11 9 14 20 5 20 -3 26 -16 13z"/>
<path d="M360 2836 c0 -15 18 -31 26 -23 7 7 -7 37 -17 37 -5 0 -9 -6 -9 -14z"/>
<path d="M850 2830 c0 -11 5 -20 10 -20 6 0 10 9 10 20 0 11 -4 20 -10 20 -5
0 -10 -9 -10 -20z"/>
<path d="M387 2754 c-8 -8 3 -34 14 -34 11 0 12 27 0 34 -4 3 -11 3 -14 0z"/>
<path d="M830 2740 c0 -11 5 -20 10 -20 6 0 10 9 10 20 0 11 -4 20 -10 20 -5
0 -10 -9 -10 -20z"/>
<path d="M416 2662 c-4 -7 -3 -19 2 -28 12 -21 22 -5 12 20 -4 13 -9 16 -14 8z"/>
<path d="M807 2651 c-3 -12 1 -22 9 -25 10 -4 14 2 14 19 0 30 -16 33 -23 6z"/>
<path d="M790 2561 c0 -12 5 -21 10 -21 6 0 10 6 10 14 0 8 -4 18 -10 21 -5 3
-10 -3 -10 -14z"/>
<path d="M437 2550 c3 -11 9 -17 14 -14 14 8 10 34 -5 34 -9 0 -12 -7 -9 -20z"/>
<path d="M467 2484 c-8 -8 3 -34 14 -34 11 0 12 27 0 34 -4 3 -11 3 -14 0z"/>
<path d="M755 2479 c-4 -6 -5 -13 -2 -16 7 -7 27 6 27 18 0 12 -17 12 -25 -2z"/>
<path d="M691 2421 c-9 -6 -10 -11 -2 -15 13 -8 31 1 31 15 0 11 -11 11 -29 0z"/>
<path d="M526 2411 c-3 -5 1 -12 10 -15 20 -8 29 -1 19 13 -8 13 -22 14 -29 2z"/>
<path d="M610 2390 c0 -5 9 -10 21 -10 11 0 17 5 14 10 -3 6 -13 10 -21 10 -8
0 -14 -4 -14 -10z"/>
<path d="M1601 2868 c-12 -40 -25 -79 -28 -86 -4 -10 3 -13 23 -10 26 3 30 10
50 73 15 49 19 74 12 83 -21 25 -36 10 -57 -60z"/>
<path d="M1936 2911 c-40 -42 -132 -367 -114 -406 17 -38 0 -45 -105 -45 -56
0 -86 -4 -82 -10 7 -12 204 -13 223 -1 9 5 11 19 7 42 -8 50 85 377 115 401
23 19 21 48 -3 48 -7 0 -26 -13 -41 -29z"/>
<path d="M3240 2937 c0 -3 26 -58 57 -123 48 -99 58 -115 66 -97 7 15 -2 41
-37 111 -25 50 -55 96 -66 102 -11 6 -20 9 -20 7z"/>
<path d="M3527 2913 c-20 -22 -38 -73 -81 -221 -53 -189 -72 -231 -105 -233
-11 0 -10 -3 6 -11 32 -15 71 -2 88 31 8 16 37 109 64 206 38 134 57 185 76
205 19 20 22 29 13 38 -18 18 -32 15 -61 -15z"/>
<path d="M4578 2915 c30 -38 28 -66 -19 -227 -25 -90 -39 -155 -37 -182 l3
-41 -93 -3 c-125 -4 -110 -22 18 -22 126 0 132 2 124 50 -4 27 5 76 36 185 53
185 49 214 -29 255 l-24 13 21 -28z"/>
<path d="M2943 2891 c10 -36 6 -57 -28 -178 -24 -84 -40 -159 -40 -193 l0 -55
-100 -5 c-122 -6 -101 -20 30 -20 118 0 126 3 114 39 -8 23 -1 59 37 190 43
152 46 164 33 198 -8 19 -24 42 -35 50 -21 14 -21 13 -11 -26z"/>
<path d="M2445 2900 c23 -26 24 -103 2 -146 -38 -72 -104 -106 -218 -112 l-87
-4 -11 -38 c-15 -52 -14 -80 6 -102 27 -30 3 -38 -112 -38 -75 0 -95 -3 -82
-11 20 -12 241 -9 252 3 4 4 -2 19 -13 33 -12 15 -19 32 -17 38 2 7 9 30 14
53 l11 41 86 7 c163 12 234 70 234 191 0 38 -5 52 -29 76 -34 33 -65 41 -36 9z"/>
<path d="M4031 2893 c34 -41 43 -91 28 -161 -26 -126 -79 -201 -174 -244 -43
-19 -73 -23 -210 -28 -113 -4 -151 -8 -131 -14 44 -13 313 0 373 19 59 18 105
52 137 104 58 93 78 237 39 289 -11 15 -35 36 -54 47 l-34 19 26 -31z"/>
<path d="M1364 2876 c-17 -14 -18 -17 -4 -41 8 -15 31 -36 50 -47 l35 -21 -22
22 c-27 26 -30 66 -6 75 15 6 15 8 3 16 -21 13 -33 12 -56 -4z"/>
<path d="M2206 2868 c-3 -13 -14 -53 -25 -90 l-20 -68 28 0 c25 0 29 5 48 73
12 39 25 80 28 90 6 14 2 17 -23 17 -23 0 -31 -5 -36 -22z"/>
<path d="M3795 2878 c-8 -23 -95 -338 -95 -344 0 -3 12 -4 27 -2 25 3 28 10
74 173 27 94 48 173 49 178 0 12 -50 8 -55 -5z"/>
<path d="M2712 2863 c-11 -4 -92 -152 -92 -168 0 -4 12 -5 27 -3 23 2 33 14
56 63 16 33 36 68 44 77 24 27 2 46 -35 31z"/>
<path d="M4362 2863 c-12 -5 -62 -95 -82 -149 -9 -22 -7 -24 19 -24 25 0 31 7
56 63 15 34 34 70 42 79 24 27 2 46 -35 31z"/>
<path d="M221 2825 c-20 -20 -22 -27 -12 -39 7 -8 10 -24 6 -35 -3 -10 -2 -22
4 -25 5 -3 12 -24 16 -47 4 -22 13 -43 21 -46 8 -3 14 -10 14 -17 0 -12 58
-41 66 -33 3 3 -9 11 -25 18 -33 15 -39 24 -18 32 6 3 2 6 -10 6 -22 1 -40 18
-29 28 3 3 12 0 21 -7 9 -7 18 -10 21 -8 3 3 -9 12 -26 19 -18 8 -29 20 -27
29 1 8 -4 20 -13 27 -20 15 -4 30 18 16 9 -6 16 -20 15 -31 -1 -11 4 -23 13
-26 8 -3 12 -2 9 4 -3 6 0 10 6 10 7 0 -6 20 -30 44 -30 31 -42 50 -37 61 3
10 12 15 20 12 10 -4 12 0 9 14 -3 10 -6 19 -7 18 0 0 -12 -11 -25 -24z"/>
<path d="M990 2820 c0 -5 7 -10 15 -10 26 0 16 -33 -22 -75 -29 -30 -30 -33
-7 -12 19 17 34 24 38 19 4 -6 1 -14 -5 -17 -5 -4 -8 -13 -5 -21 3 -8 -6 -20
-25 -30 -17 -8 -28 -18 -25 -21 3 -3 12 0 21 7 12 10 15 10 15 -4 0 -9 -8 -16
-19 -16 -11 0 -22 -4 -25 -8 -3 -5 5 -8 17 -7 20 1 44 34 52 69 1 6 5 19 9 28
4 9 5 22 2 27 -4 6 -1 20 6 31 11 18 10 23 -6 36 -23 16 -36 18 -36 4z"/>
<path d="M257 2793 c-3 -5 9 -24 25 -43 l30 -35 -21 43 c-22 43 -26 48 -34 35z"/>
<path d="M956 2753 l-17 -38 25 30 c26 31 32 45 18 45 -5 0 -16 -17 -26 -37z"/>
<path d="M3082 2645 c-25 -91 -30 -120 -21 -136 18 -35 4 -49 -48 -49 -35 0
-44 -3 -33 -10 19 -12 110 -13 129 -1 12 8 13 14 3 36 -11 23 -9 41 14 120 25
88 25 94 10 124 -9 17 -18 31 -19 31 -1 0 -17 -52 -35 -115z"/>
<path d="M1508 2718 c42 -44 51 -93 27 -154 -24 -63 -75 -96 -163 -104 l-67
-6 48 -8 c105 -18 186 16 226 97 30 61 23 104 -24 152 -49 49 -91 69 -47 23z"/>
<path d="M969 2693 c-13 -16 -12 -17 4 -4 9 7 17 15 17 17 0 8 -8 3 -21 -13z"/>
<path d="M1220 2600 c22 -31 61 -63 68 -55 8 8 -60 85 -75 85 -11 0 -10 -6 7
-30z"/>
<path d="M926 2595 c-17 -13 -18 -15 -3 -15 9 0 17 4 17 9 0 5 8 12 18 14 12
3 13 5 2 6 -8 0 -24 -6 -34 -14z"/>
<path d="M2564 2575 c-17 -41 -18 -57 -3 -72 7 -7 9 -19 6 -27 -5 -12 -21 -16
-69 -16 -44 0 -59 -3 -48 -10 17 -11 119 -14 144 -4 12 5 15 15 10 43 -4 23 0
51 9 73 13 32 21 37 54 41 26 2 18 4 -25 5 -63 2 -63 2 -78 -33z"/>
<path d="M4213 2573 c-12 -30 -13 -44 -5 -67 6 -16 9 -33 6 -37 -3 -5 -33 -9
-67 -9 -44 0 -58 -3 -47 -10 18 -12 140 -13 157 -2 10 6 10 15 1 39 -10 26 -9
38 6 72 16 34 24 40 55 44 22 2 12 4 -27 5 l-63 2 -16 -37z"/>
<path d="M4665 2555 c-50 -49 -15 -135 55 -135 39 0 80 42 80 82 0 39 -40 78
-80 78 -19 0 -40 -9 -55 -25z"/>
<path d="M904 2512 c0 -15 -3 -34 -6 -42 -2 -8 -3 -11 0 -6 2 4 8 3 12 -3 3
-7 7 6 8 28 1 22 -2 42 -6 45 -4 2 -7 -8 -8 -22z"/>
<path d="M331 2520 c0 -14 28 -72 29 -59 0 4 -7 22 -15 40 -8 19 -14 27 -14
19z"/>
<path d="M374 2522 c-13 -8 -1 -58 21 -86 12 -16 18 -17 27 -8 16 16 -2 48
-26 46 -17 -2 -22 12 -7 18 4 2 6 11 2 20 -3 10 -11 14 -17 10z m46 -72 c0 -5
-4 -10 -9 -10 -6 0 -13 5 -16 10 -3 6 1 10 9 10 9 0 16 -4 16 -10z"/>
<path d="M856 2503 c-9 -23 10 -41 27 -24 10 10 8 11 -7 5 -14 -5 -17 -3 -14
7 3 8 11 13 17 12 6 -2 11 2 11 7 0 17 -27 11 -34 -7z"/>
<path d="M1161 2483 c-28 -22 -31 -27 -17 -35 10 -6 26 -3 45 7 39 20 44 29
22 42 -14 9 -24 6 -50 -14z"/>
<path d="M840 2436 c7 -7 13 -7 20 0 6 6 3 10 -10 10 -13 0 -16 -4 -10 -10z"/>
<path d="M430 2410 c-20 -12 -10 -19 14 -10 11 3 15 9 10 13 -6 3 -16 2 -24
-3z"/>
<path d="M800 2413 c1 -23 16 -28 33 -11 16 17 16 18 -8 18 -14 0 -25 -3 -25
-7z"/>
<path d="M453 2382 c-9 -6 -7 -11 7 -20 17 -11 20 -10 20 8 0 21 -7 25 -27 12z"/>
<path d="M750 2362 c0 -5 -12 -13 -26 -16 -21 -6 -24 -9 -14 -21 10 -12 10
-15 0 -15 -8 0 -11 -3 -7 -6 9 -9 48 22 39 31 -4 4 1 5 10 2 23 -8 32 8 13 23
-9 7 -15 8 -15 2z"/>
<path d="M500 2336 c0 -15 37 -32 47 -22 3 3 3 12 0 21 -8 19 -47 20 -47 1z
m40 0 c0 -11 -19 -15 -25 -6 -3 5 1 10 9 10 9 0 16 -2 16 -4z"/>
<path d="M565 2320 c-11 -17 6 -32 31 -27 14 2 24 -1 24 -7 0 -6 4 -5 9 3 5 7
13 11 19 7 15 -9 39 3 39 19 0 10 -6 11 -24 4 -14 -5 -33 -5 -49 1 -32 13 -41
13 -49 0z m35 -10 c0 -5 -7 -10 -15 -10 -8 0 -15 5 -15 10 0 6 7 10 15 10 8 0
15 -4 15 -10z"/>
</g>
</svg>
